<?xml version="1.0" encoding="UTF-8"?>
<svg id="Capa_1" data-name="Capa 1" xmlns="http://www.w3.org/2000/svg" viewBox="0 0 442 442">
    <defs>
        <style>
            .cls-1 {
            fill: #e7662f;
            }
        </style>
    </defs>
    <path class="cls-1"
          d="m343.46,330.88c-5.52,0-10-4.48-10-10s4.48-10,10-10c18.49,0,33.54-15.04,33.54-33.54,0-5.52,4.48-10,10-10s10,4.48,10,10c0,29.52-24.02,53.54-53.54,53.54Z"/>
    <path class="cls-1"
          d="m343.46,375.88c-13.3,0-26.2-2.61-38.36-7.75-5.09-2.15-7.47-8.02-5.31-13.11,2.15-5.09,8.02-7.47,13.11-5.31,9.68,4.09,19.96,6.17,30.57,6.17,43.3,0,78.54-35.23,78.54-78.54,0-39.39-50.62-134.03-78.51-181.68-8.46,14.49-22.08,38.45-35.57,64.84-2.51,4.92-8.54,6.87-13.46,4.35-4.92-2.51-6.87-8.54-4.35-13.46,22.11-43.26,44.59-80.13,44.82-80.49,1.82-2.97,5.05-4.79,8.53-4.79s6.72,1.81,8.53,4.79c3.68,6.01,90,147.95,90,206.44,0,54.33-44.2,98.54-98.54,98.54Z"/>
    <path class="cls-1"
          d="m221,330.88c-5.52,0-10-4.48-10-10s4.48-10,10-10c18.49,0,33.54-15.04,33.54-33.54,0-5.52,4.48-10,10-10s10,4.48,10,10c0,29.52-24.01,53.54-53.54,53.54Z"/>
    <path class="cls-1"
          d="m221,375.88c-13.92,0-27.38-2.85-40.01-8.46-5.05-2.24-7.32-8.15-5.07-13.2,2.24-5.05,8.15-7.32,13.2-5.07,10.05,4.47,20.78,6.74,31.88,6.74,43.3,0,78.54-35.23,78.54-78.54,0-39.39-50.62-134.03-78.51-181.68-8.46,14.49-22.08,38.45-35.57,64.83-2.51,4.92-8.54,6.87-13.46,4.35s-6.87-8.54-4.35-13.46c22.11-43.26,44.59-80.13,44.82-80.5,1.82-2.97,5.05-4.79,8.53-4.79s6.72,1.81,8.53,4.79c3.68,6.01,90,147.95,90,206.44,0,54.33-44.2,98.54-98.54,98.54Z"/>
    <path class="cls-1"
          d="m98.54,375.88c-54.33,0-98.54-44.2-98.54-98.54,0-58.49,86.33-200.42,90-206.44,1.82-2.97,5.05-4.79,8.53-4.79s6.72,1.81,8.53,4.79c3.68,6.01,90,147.95,90,206.44,0,54.33-44.2,98.54-98.54,98.54Zm0-280.25c-27.88,47.63-78.54,142.31-78.54,181.72,0,43.3,35.23,78.54,78.54,78.54s78.54-35.23,78.54-78.54c0-39.42-50.65-134.09-78.54-181.72Z"/>
    <path class="cls-1"
          d="m98.54,330.88c-5.52,0-10-4.48-10-10s4.48-10,10-10c18.49,0,33.54-15.04,33.54-33.54,0-5.52,4.48-10,10-10s10,4.48,10,10c0,29.52-24.02,53.54-53.54,53.54Z"/>
</svg>