<?xml version="1.0" encoding="UTF-8"?>
<svg id="Layer_1" data-name="Layer 1" xmlns="http://www.w3.org/2000/svg" viewBox="0 0 50 25">
    <defs>
        <style>
            .cls-1 {
            fill: #e7662f;
            }
        </style>
    </defs>
    <path class="cls-1"
          d="m15.25,17.94c0-.39-.3-.7-.67-.7h-6.44c-.37,0-.67.31-.67.7s.3.7.67.7h6.44c.37,0,.67-.31.67-.7Z"/>
    <path class="cls-1" d="m8.27,9.32c-.37,0-.67.31-.67.7s.3.7.67.7h6.12c.37,0,.67-.31.67-.7s-.3-.7-.67-.7h-6.12Z"/>
    <path class="cls-1" d="m6.66,6.77h1.88c.37,0,.67-.31.67-.7s-.3-.7-.67-.7h-1.88c-.37,0-.67.31-.67.7s.3.7.67.7Z"/>
    <path class="cls-1"
          d="m17.9,13.98c0-.39-.3-.7-.67-.7H6.8c-.37,0-.67.31-.67.7s.3.7.67.7h10.43c.37,0,.67-.31.67-.7Z"/>
    <path class="cls-1" d="m3.3,13.28h-1.14c-.37,0-.67.31-.67.7s.3.7.67.7h1.14c.37,0,.67-.31.67-.7s-.3-.7-.67-.7Z"/>
    <path class="cls-1"
          d="m11.14,6.77h6.42c.26,0,.49-.16.6-.39.05-.09.07-.2.07-.31s-.02-.22-.07-.31c-.11-.23-.34-.39-.6-.39h-6.42c-.26,0-.49.16-.6.39-.05.09-.07.2-.07.31s.03.22.07.31c.11.23.34.39.6.39Z"/>
    <path class="cls-1"
          d="m47.52,11.76l-3.33-5.54c-.51-.84-1.38-1.35-2.34-1.35h-6.89c0-.57-.14-1.11-.37-1.58-.59-1.22-1.79-1.97-3.1-1.97H14.25c-.99.13-1.84.7-2.39,1.52-.34.5-.15,1.01.42,1.11.26.05.52-.07.67-.29.38-.58,1.03-.96,1.75-.96h16.8c1.17,0,2.13.99,2.13,2.22v15.9h-9.22s0-.05,0-.07c0-2.17-1.69-3.93-3.77-3.93s-3.77,1.76-3.77,3.93c0,.02,0,.05,0,.07h-2.18c-.55,0-1.06-.22-1.43-.58-.13-.12-.29-.19-.46-.19-.61,0-.91.78-.46,1.22.62.6,1.45.96,2.35.96h2.45c.56,1.44,1.91,2.46,3.49,2.46s2.93-1.02,3.49-2.46h13.6c.56,1.44,1.91,2.46,3.49,2.46s2.93-1.02,3.49-2.46h.79c1.39,0,2.51-1.17,2.51-2.62v-6.04c0-.64-.17-1.27-.5-1.81Zm-24.46,9.11c-.06,1.3-1.06,2.35-2.31,2.41-1.42.07-2.6-1.16-2.53-2.64.06-1.3,1.06-2.35,2.31-2.41,1.42-.07,2.6,1.16,2.53,2.64Zm20.58,0c-.06,1.3-1.06,2.35-2.3,2.41-1.42.07-2.6-1.16-2.53-2.64.06-1.3,1.06-2.35,2.31-2.41,1.42-.07,2.6,1.16,2.53,2.64Zm3.03-1.26c0,.67-.52,1.21-1.16,1.21h-.52s0-.05,0-.07c0-2.17-1.69-3.93-3.77-3.93s-3.77,1.76-3.77,3.93c0,.02,0,.05,0,.07h-2.49V6.28h6.89c.49,0,.94.26,1.2.69l3.33,5.54c.18.3.28.65.29,1.01h-6.19v-4.83c0-.38-.29-.71-.65-.72-.38-.01-.69.31-.69.7v5.55c0,.39.3.7.67.7h6.86v4.69Z"/>
</svg>