<?xml version="1.0" encoding="UTF-8"?>
<svg id="Layer_1" data-name="Layer 1" xmlns="http://www.w3.org/2000/svg" viewBox="0 0 512 512">
    <defs>
        <style>
            .cls-1 {
            fill: #e7662f;
            }
        </style>
    </defs>
    <g id="Line">
        <path class="cls-1"
              d="m256,106.67c-82.35,0-149.33,66.99-149.33,149.33s66.99,149.33,149.33,149.33,149.33-66.99,149.33-149.33-66.99-149.33-149.33-149.33Zm0,277.33c-70.58,0-128-57.42-128-128s57.42-128,128-128,128,57.42,128,128-57.42,128-128,128Z"/>
        <path class="cls-1"
              d="m312.46,205.79l-77.79,77.79-35.14-35.13c-4.17-4.17-10.91-4.17-15.08,0s-4.17,10.92,0,15.08l42.68,42.67c2.09,2.08,4.82,3.13,7.54,3.13s5.46-1.05,7.54-3.13l85.33-85.33c4.17-4.17,4.17-10.91,0-15.08s-10.91-4.17-15.08,0h0Z"/>
        <path class="cls-1"
              d="m467.95,221.3c-4.39-3.25-5.76-9.69-2.85-14.31,10.42-16.58,25.56-51.39-26.56-64.16-5.31-1.3-9.25-6.79-8.12-12.13,5-23.4-2.01-57.39-49.11-49.11-5.37.94-11.07-2.75-12.13-8.12-3.53-17.94-18.74-54.28-64.15-26.57-4.67,2.85-12.12,1.3-14.31-2.86C283.67,30.72,252.79,0,221.28,44.04c-3.18,4.45-10.49,5.59-14.31,2.85-20.67-14.81-54.07-18.51-64.16,26.56-1.16,5.17-6.67,9.14-12.14,8.11-18.07-3.43-57.73-2.3-49.08,49.11.91,5.39-2.71,11.33-8.11,12.14-21.05,3.15-53.49,20.05-26.58,64.15,2.85,4.66,2.03,11.85-2.85,14.31-18.68,9.44-40.06,43.02,0,69.47,4.55,3.01,5.7,9.48,2.85,14.14-26.91,44.1,5.54,60.99,26.58,64.15,5.41.81,9.01,6.75,8.11,12.14-8.65,51.41,31.01,52.54,49.1,49.1,5.47-1.05,10.98,2.93,12.14,8.11,10.09,45.08,43.49,41.37,64.16,26.56,3.83-2.74,11.14-1.6,14.31,2.85,31.51,44.05,62.39,13.33,69.44,0,2.2-4.15,9.64-5.71,14.31-2.86,45.41,27.71,60.62-8.63,64.15-26.57,1.06-5.37,6.76-9.06,12.13-8.12,47.1,8.28,54.1-25.71,49.11-49.11-1.14-5.33,2.81-10.83,8.12-12.13,52.13-12.77,36.99-47.58,26.56-64.16-2.91-4.63-1.65-11.2,2.83-14.29,13.93-9.63,44.05-36.65,0-69.25h0Zm-15.23,106.28c3.63,5.83,1.39,13.86-6.87,16.58-15.13,4.99-43,9.1-35.56,53.25,1.42,8.39-3.07,13.42-12.69,12.68-14.63-1.12-44.77-7.04-53.23,35.57-1.67,8.42-9.92,10.24-16.58,6.88-28.71-14.5-40.2-16.35-62.79,12.49-4.32,5.51-13.32,5.28-17.95,0-12.14-13.83-25.89-35.1-62.81-12.48-6.42,3.94-13.74.9-16.58-6.87-7.37-20.22-9.55-41.78-53.24-35.56-6.74.96-13.89-3.61-12.68-12.68,2.29-17.37,4.93-45.25-35.58-53.25-6.25-1.24-11.14-9.58-6.87-16.58,16.18-26.46,13.94-43.02-12.73-62.91-3.01-2.24-7.9-11.87.23-17.7,25.97-18.58,28.67-36.32,12.49-62.79-4.28-7,.62-15.35,6.87-16.58,40.51-8,37.88-35.88,35.58-53.25-1.21-9.08,5.95-13.64,12.68-12.68,43.69,6.21,45.87-15.34,53.24-35.56,2.83-7.78,10.15-10.81,16.58-6.87,36.93,22.62,50.68,1.35,62.81-12.48,4.63-5.28,13.62-5.51,17.95,0,22.59,28.84,34.08,26.99,62.79,12.49,6.66-3.36,14.9-1.54,16.58,6.88,8.46,42.61,38.59,36.69,53.23,35.57,9.63-.74,14.11,4.29,12.69,12.68-7.43,44.16,20.44,48.26,35.56,53.25,8.26,2.72,10.5,10.75,6.87,16.58-23.72,38.1,1.34,53.25,12.49,62.81,4.35,3.73,6.86,12.55,1,17.12-13.32,9.22-37.22,25.31-13.49,63.41h0Z"/>
    </g>
</svg>